<?xml version="1.0" encoding="utf-8"?>
<!-- Generator: Adobe Illustrator 16.0.0, SVG Export Plug-In . SVG Version: 6.00 Build 0)  -->
<!DOCTYPE svg PUBLIC "-//W3C//DTD SVG 1.1//EN" "http://www.w3.org/Graphics/SVG/1.1/DTD/svg11.dtd">
<svg version="1.1" id="图层_1" xmlns="http://www.w3.org/2000/svg" xmlns:xlink="http://www.w3.org/1999/xlink" x="0px" y="0px"
	 width="143px" height="26px" viewBox="0 0 143 26" enable-background="new 0 0 143 26" xml:space="preserve">
<g>
	<g>
		<path fill="#595757" d="M141,23.969V16.77h-11.459v7.199C133.193,23.969,137.351,23.969,141,23.969L141,23.969z M115.476,16.351
			c2.183,0.013,4.098-0.119,5.741-0.411c1.652-0.287,3.052-0.698,4.205-1.232c1.154-0.536,2.083-1.168,2.79-1.895
			c0.71,0.727,1.647,1.359,2.811,1.898c1.158,0.544,2.561,0.956,4.211,1.245c1.652,0.286,3.575,0.422,5.767,0.396v-2.965
			c-1.222,0.016-2.347-0.039-3.366-0.152c-1.023-0.118-1.984-0.316-2.887-0.598c-0.907-0.277-1.797-0.656-2.665-1.13H141V8.892
			h-2.772l0.797-1.242h-3.662l-0.875,1.242h-4.381c0.016-0.111,0.021-0.221,0.021-0.338c0.005-0.112,0.005-0.233,0.005-0.362V7.458
			h-3.845v0.766c0,0.255-0.024,0.477-0.077,0.668h-10.735v2.613h8.992c-0.55,0.374-1.18,0.68-1.892,0.918
			c-0.71,0.245-1.469,0.433-2.269,0.566c-0.803,0.131-1.612,0.219-2.438,0.273c-0.824,0.045-1.621,0.067-2.394,0.059V16.351
			L115.476,16.351z M127.342,7.014V0.577h-10.945v6.437C120.049,7.014,123.691,7.014,127.342,7.014L127.342,7.014z M120.626,5.851
			V1.916l2.511,0.51v2.914L120.626,5.851L120.626,5.851z M140.109,7.014V0.577h-10.944v6.437
			C132.816,7.014,136.459,7.014,140.109,7.014L140.109,7.014z M133.393,5.339V2.425l2.509-0.51v3.936L133.393,5.339L133.393,5.339z
			 M126.931,23.969V16.77h-11.455v7.199C119.124,23.969,123.281,23.969,126.931,23.969L126.931,23.969z M119.7,22.805v-4.695
			l3.028,0.507v3.682L119.7,22.805L119.7,22.805z M133.771,22.298v-3.682l3.023-0.507v4.695L133.771,22.298z"/>
		<path fill="#595757" d="M15.454,23.962v-2.93h-8.43v-9.874h3.973v5.095H9.28v2.832h5.894v-8.757h1.563l-1.82-10.134H7.869v0.003
			H7.382V0.194H2.82L1,10.328h1.667v13.634H15.454L15.454,23.962z M7.332,3.441v0.006h3.561l0.949,4.906H5.897L6.79,3.441H7.332
			L7.332,3.441z M26.324,25.74V0.162h-4.384v23.761L26.324,25.74L26.324,25.74z M20.726,23.031V1.213h-3.579v21.818H20.726z"/>
		<path fill="#595757" d="M47.711,20.267V0.1h-4.357v20.167h-2.126V0.1h-4.38v20.167h-7.203v3.124h25.293v-3.124H47.711
			L47.711,20.267z M49.376,19.115l1.924-17.609h3.664l-1.692,17.609H49.376L49.376,19.115z M33.286,1.506l1.896,17.609H31.31
			L29.621,1.506H33.286z"/>
		<path fill="#595757" d="M74.308,23.866V11.058h5.533c-0.05,0.733-0.155,1.439-0.302,2.119c-0.155,0.679-0.35,1.324-0.595,1.927
			c-0.219-0.525-0.387-1.083-0.515-1.675c-0.124-0.589-0.203-1.223-0.228-1.891h-3.64c0.058,1.452,0.262,2.755,0.609,3.928
			c0.355,1.176,0.833,2.22,1.439,3.145c-0.28,0.271-0.577,0.521-0.89,0.747c-0.305,0.23-0.636,0.448-0.98,0.654v3.92
			c0.821-0.317,1.594-0.685,2.319-1.109c0.726-0.421,1.397-0.896,2.014-1.438c0.662,0.552,1.38,1.039,2.147,1.454
			c0.758,0.414,1.566,0.783,2.412,1.094v-3.92c-0.794-0.383-1.539-0.859-2.228-1.435c0.772-1.268,1.347-2.761,1.727-4.475
			c0.381-1.716,0.547-3.686,0.501-5.911h-9.326V2.902h4.818v2.296h-3.827v2.134h8.055V0.132H70.051V25.9L74.308,23.866
			L74.308,23.866z M64.687,16.205l-2.017,2.383v5.278l-3.945,1.02V0.1H68.76v24.786l-4.074-1.02V16.205L64.687,16.205z
			 M62.67,14.515l1.546-1.921l-1.546-1.918V14.515L62.67,14.515z M62.67,6.599l2.017,2.387v-5.86H62.67V6.599z"/>
		<path fill="#595757" d="M94.312,1.023l0.388-0.83h-5.203l-2.642,5.419h5.306l0.743-1.627h12.892
			c-1.015,0.824-2.064,1.542-3.148,2.151c-1.09,0.613-2.207,1.136-3.362,1.578c-0.615-0.224-1.207-0.456-1.783-0.706
			c-0.574-0.25-1.125-0.521-1.65-0.825h-6.406c0.499,0.592,1.082,1.143,1.74,1.657s1.387,1.004,2.179,1.466
			c-0.961,0.177-1.938,0.321-2.937,0.435c-1,0.122-2.02,0.218-3.059,0.298v3.377c1.343-0.042,2.677-0.13,4-0.274
			c1.325-0.144,2.623-0.336,3.897-0.575c1.277-0.238,2.511-0.529,3.713-0.871c1.386,0.435,2.823,0.8,4.303,1.101
			c1.479,0.296,2.966,0.524,4.461,0.677c1.499,0.149,2.969,0.229,4.408,0.229V10.04c-1.192-0.08-2.379-0.186-3.563-0.318
			c-1.177-0.136-2.34-0.304-3.484-0.509c1.191-0.671,2.263-1.419,3.208-2.241c0.946-0.829,1.746-1.739,2.392-2.73
			c0.646-0.986,1.111-2.061,1.397-3.218H94.312L94.312,1.023z M93.213,23.866H88.03l3.617-6.468h-4.355v-2.963h5.943l0.795-1.465
			h4.999l-0.793,1.465h13.583v9.464h-11.161V21h6.469v-3.602H96.644L93.213,23.866z"/>
	</g>
</g>
</svg>
